#!OML:ASF E:\acrobat2\Project_11_07_03\Capture day 1\Session 1\Acrobat.ASF
:FULLY-SPECIFIED
:DEGREES
44
root 10.7172 17.9412 -30.1485 24.0116 -87.0554 -20.8695
lowerback -8.65263 0.265133 1.2861
upperback -2.31031 0.212237 -1.17284
thorax 2.46681 0.0834948 -1.91407
lowerneck -1.78787 -0.952261 0.146928
upperneck -0.381308 -1.30888 3.91386
head 0.205836 -0.651997 1.16402
rclavicle 1.59028e-015 -1.11319e-014
rhumerus -12.3044 -31.0867 -10.5867
rradius 19.4251
rwrist 17.6405
rhand -11.0991 -43.4732
rfingers 7.12502
rthumb 14.9251 -72.9155
lclavicle 1.59028e-015 -1.11319e-014
lhumerus 0.505323 10.7598 8.37213
lradius 20.458
lwrist 6.51689
lhand -8.87718 -6.20722
lfingers 7.12502
lthumb 17.0647 23.0633
rfemur 10.7428 15.3266 14.6315
rtibia -2.63996
rfoot -28.2495 -31.0557
rtoes 2.03693
lfemur 10.1431 -9.03233 -5.36593
ltibia -3.67924
lfoot -28.6374 7.10657
ltoes 32.9242
45
root 10.7239 17.9433 -30.1447 27.1212 -86.9241 -23.9806
lowerback -8.56425 0.226095 1.49946
upperback -2.32168 0.141413 -1.0987
thorax 2.40332 0.0486264 -1.96491
lowerneck -1.84339 -0.906867 0.136573
upperneck -0.283409 -1.2513 3.87427
head 0.243601 -0.621037 1.15348
rclavicle -2.23633e-015 1.19271e-015
rhumerus -12.2039 -31.1251 -10.6525
rradius 19.4293
rwrist 17.8411
rhand -10.9987 -43.594
rfingers 7.12502
rthumb 15.0218 -73.0291
lclavicle -2.23633e-015 1.19271e-015
lhumerus 0.464942 11.2302 8.41872
lradius 20.3397
lwrist 5.87192
lhand -8.48383 -6.16403
lfingers 7.12502
lthumb 17.4433 23.0733
rfemur 10.7405 15.3671 14.9269
rtibia -2.62673
rfoot -28.1392 -31.232
rtoes 1.87079
lfemur 10.0077 -8.84639 -5.05878
ltibia -3.52254
lfoot -28.3896 7.10747
ltoes 32.3323
46
root 10.7314 17.9465 -30.1423 30.5371 -86.7842 -27.3787
lowerback -8.50543 0.2079 1.74342
upperback -2.32226 0.0960514 -1.03216
thorax 2.36824 0.0268104 -2.03813
lowerneck -1.85049 -0.889231 0.213822
upperneck -0.283077 -1.22848 3.77447
head 0.242949 -0.609765 1.10928
rclavicle -4.77083e-015 -7.95139e-015
rhumerus -12.1229 -31.1699 -10.6961
rradius 19.4024
rwrist 17.9716
rhand -10.9685 -43.7375
rfingers 7.12502
rthumb 15.0508 -73.1705
lclavicle -4.77083e-015 -7.95139e-015
lhumerus 0.444004 11.4253 8.42179
lradius 20.2944
lwrist 5.67608
lhand -8.35917 -6.14818
lfingers 7.12502
lthumb 17.5632 23.0785
rfemur 10.6793 15.3998 15.2197
rtibia -2.58249
rfoot -28.0336 -31.3276
rtoes 1.5773
lfemur 9.84778 -8.69812 -4.72186
ltibia -3.36119
lfoot -28.2443 7.16517
ltoes 31.4447
47
root 10.738 17.9486 -30.1407 30.8216 -86.8382 -27.693
lowerback -8.42467 0.223248 1.76386
upperback -2.29865 0.117194 -1.03883
thorax 2.34895 0.0378908 -2.05422
lowerneck -1.76302 -1.02037 0.144808
upperneck -0.0911738 -1.40695 3.82469
head 0.291687 -0.696625 1.13536
rclavicle 2.43511e-015 -3.18055e-015
rhumerus -12.0932 -31.3417 -10.6727
rradius 19.3426
rwrist 18.2737
rhand -10.9498 -43.8143
rfingers 7.12502
rthumb 15.0689 -73.2459
lclavicle 2.43511e-015 -3.18055e-015
lhumerus 0.438279 11.2407 8.36679
lradius 20.3167
lwrist 5.95543
lhand -8.35441 -6.07186
lfingers 7.12502
lthumb 17.5678 23.1544
rfemur 10.6873 15.5733 15.23
rtibia -2.58861
rfoot -28.2393 -31.3174
rtoes 1.76841
lfemur 9.77291 -8.07239 -4.55139
ltibia -3.21797
lfoot -27.6636 7.12542
ltoes 30.6973
48
root 10.7434 17.9498 -30.139 29.3239 -86.9464 -26.1948
lowerback -8.3901 0.234949 1.65828
upperback -2.28001 0.1434 -1.06594
thorax 2.35022 0.0510137 -2.02003
lowerneck -1.70854 -1.02959 0.214032
upperneck 0.0323654 -1.42278 3.74754
head 0.31941 -0.70333 1.09942
rclavicle -2.5842e-015 9.54166e-015
rhumerus -12.0713 -31.3577 -10.6377
rradius 19.315
rwrist 18.3923
rhand -10.928 -43.923
rfingers 7.12502
rthumb 15.0899 -73.353
lclavicle -2.5842e-015 9.54166e-015
lhumerus 0.459938 11.3079 8.37322
lradius 20.2916
lwrist 5.94537
lhand -8.1919 -6.03907
lfingers 7.12502
lthumb 17.7242 23.1731
rfemur 10.6914 15.8509 15.1237
rtibia -2.59653
rfoot -28.626 -31.2995
rtoes 2.45763
lfemur 9.77681 -8.03867 -4.69878
ltibia -3.25711
lfoot -27.7 6.96434
ltoes 31.6821
49
root 10.7495 17.9512 -30.1373 28.304 -86.9704 -25.1228
lowerback -8.39601 0.241423 1.62468
upperback -2.27833 0.155438 -1.09509
thorax 2.3558 0.0569119 -2.03004
lowerneck -1.6913 -0.993683 0.301099
upperneck 0.0821345 -1.37714 3.67625
head 0.329467 -0.68012 1.06281
rclavicle 9.98893e-015 5.56597e-015
rhumerus -12.1095 -31.2137 -10.6332
rradius 19.351
rwrist 18.2735
rhand -11.0461 -44.1289
rfingers 7.12502
rthumb 14.9761 -73.5674
lclavicle 9.98893e-015 5.56597e-015
lhumerus 0.571684 11.7948 8.48626
lradius 20.1806
lwrist 5.40735
lhand -8.01188 -6.08112
lfingers 7.12502
lthumb 17.8974 23.1153
rfemur 10.6073 15.8476 15.0196
rtibia -2.58285
rfoot -28.6226 -31.2812
rtoes 2.60612
lfemur 9.74787 -8.58149 -4.94505
ltibia -3.33396
lfoot -28.3105 6.83866
ltoes 33.2499
50
root 10.7563 17.9518 -30.1351 28.4774 -86.9695 -25.261
lowerback -8.37687 0.25813 1.67249
upperback -2.27879 0.174347 -1.10847
thorax 2.34576 0.066411 -2.06887
lowerneck -1.71414 -0.967639 0.294297
upperneck 0.152343 -1.34532 3.70958
head 0.354585 -0.662889 1.07448
rclavicle 1.2424e-015 -4.77083e-015
rhumerus -12.1693 -31.4243 -10.5747
rradius 19.3551
rwrist 18.6607
rhand -11.0883 -44.3571
rfingers 7.12502
rthumb 14.9355 -73.7986
lclavicle 1.2424e-015 -4.77083e-015
lhumerus 0.665688 11.9003 8.5323
lradius 20.1133
lwrist 5.18708
lhand -7.91899 -6.08018
lfingers 7.12502
lthumb 17.9868 23.1081
rfemur 10.4931 15.5625 14.9324
rtibia -2.56688
rfoot -28.1916 -31.2722
rtoes 1.59868
lfemur 9.70197 -8.85413 -5.04225
ltibia -3.30669
lfoot -28.5496 7.07681
ltoes 32.8788
51
root 10.7626 17.9524 -30.1337 30.1072 -86.9132 -26.8647
lowerback -8.36679 0.272182 1.78389
upperback -2.26251 0.183479 -1.06798
thorax 2.3576 0.0719438 -2.08881
lowerneck -1.75805 -0.951275 0.233813
upperneck 0.207359 -1.32516 3.76013
head 0.379406 -0.651393 1.10051
rclavicle -2.23633e-015 -3.97569e-016
rhumerus -12.1772 -31.8061 -10.4761
rradius 19.3321
rwrist 19.2371
rhand -11.0593 -44.5568
rfingers 7.12502
rthumb 14.9634 -73.9962
lclavicle -2.23633e-015 -3.97569e-016
lhumerus 0.752077 11.8605 8.55816
lradius 20.0651
lwrist 5.17125
lhand -7.76264 -5.98931
lfingers 7.12502
lthumb 18.1372 23.1851
rfemur 10.4144 15.4564 15.0125
rtibia -2.54747
rfoot -27.9628 -31.2663
rtoes 1.40074
lfemur 9.65979 -9.03071 -4.98116
ltibia -3.29481
lfoot -28.6465 7.24226
ltoes 32.5574
52
root 10.7689 17.9538 -30.1349 31.1804 -86.8462 -27.8948
lowerback -8.36724 0.276658 1.83334
upperback -2.25317 0.18432 -1.01581
thorax 2.36752 0.0729549 -2.0626
lowerneck -1.80558 -0.948532 0.198946
upperneck 0.266983 -1.32264 3.73783
head 0.40565 -0.648732 1.09929
rclavicle -1.04362e-015 -9.54166e-015
rhumerus -12.1696 -31.923 -10.3897
rradius 19.3326
rwrist 19.4296
rhand -11.1177 -44.7796
rfingers 7.12502
rthumb 14.9071 -74.2232
lclavicle -1.04362e-015 -9.54166e-015
lhumerus 0.846778 12.078 8.66205
lradius 20.0285
lwrist 4.89629
lhand -7.57436 -5.87086
lfingers 7.12502
lthumb 18.3184 23.2866
rfemur 10.3376 15.3737 15.072
rtibia -2.54906
rfoot -27.7388 -31.2356
rtoes 1.7189
lfemur 9.5772 -9.13162 -4.88962
ltibia -3.30088
lfoot -28.7706 6.96547
ltoes 33.7441
